<svg id="Layer_1" data-name="Layer 1" xmlns="http://www.w3.org/2000/svg" xmlns:xlink="http://www.w3.org/1999/xlink" viewBox="0 0 288 131.55" width="288"  height="131.55" ><defs><style>.cls-1{fill:url(#linear-gradient);}</style><linearGradient id="linear-gradient" x1="113.6" y1="23.93" x2="174.4" y2="23.93" gradientUnits="userSpaceOnUse"><stop offset="0" stop-color="#1d47b8"/><stop offset="1" stop-color="#ae88f7"/></linearGradient></defs><polygon class="cls-1" points="154.26 15.47 155.26 0 135.03 15.54 136.03 0 115.68 15.64 113.61 47.86 133.83 32.32 132.83 47.86 152.96 32.39 151.97 47.86 172.32 32.22 174.4 0 154.26 15.47"/><path d="M24.44,67.09H36.11L48.29,93.88h.06L60.43,67.09H71.74v34.63h-7V72.09h0L51.05,101.72H45L31.32,72.09h-.1v29.63H24.44Z"/><path d="M89.74,67.09h7v34.63h-7Z"/><path d="M112.93,90.09h6.37c0,3.31,1.89,6.79,12.39,6.79,10.76,0,12.64-2.58,12.64-5.58,0-1.74-1-2.84-3.11-3.42-2.39-.58-7.9-.74-11.83-.95-4.38-.26-9.78-.74-12.59-2.11a7.43,7.43,0,0,1-4.08-7c0-6.21,5.92-11.36,18.82-11.36,15.39,0,18.25,5.73,18.25,11.94h-6.38c0-3.94-2.9-6.47-11.87-6.47-8.21,0-11.83,2.1-11.83,5.37,0,1.73.92,2.68,2.6,3.31,2.09.74,7.75,1,11.52,1.16,4.74.27,9.58.58,12.59,1.69a7.6,7.6,0,0,1,5,7.31c0,5.27-2.91,11.58-19.68,11.58C114.71,102.35,112.93,94.67,112.93,90.09Z"/><path d="M166.15,67.09h7V81h26.26V67.09h7v34.63h-7V86.51H173.18v15.21h-7Z"/><path d="M251.18,94h-23.1l-4.18,7.68h-7.39l19.42-34.63h8.21l19.42,34.63h-8.2Zm-2.61-4.79-8.92-16.32h-.05l-8.92,16.32Z"/><path d="M48.87,118.62h2.58v7.26h0l9.41-7.26h3.47l-7.69,5.83,8.12,6.87H61L54.74,126l-3.29,2.47v2.84H48.87Z"/><path d="M68.2,118.62h3.66l8.46,9.11h0v-9.11h2.46v12.7H80.28L70.71,121h0v10.36H68.2Z"/><path d="M88.6,118.62H100v2.11H91.17v3.33h7v1.74h-7v3.42h9v2.1H88.6Z"/><path d="M105.46,118.62h11.41v2.11H108v3.33h7v1.74h-7v3.42h9v2.1h-11.6Z"/><path d="M131.12,127.06h2.34c0,1.21.69,2.49,4.54,2.49s4.63-1,4.63-2.05c0-.64-.38-1-1.14-1.25a34,34,0,0,0-4.34-.35,14.91,14.91,0,0,1-4.61-.77,2.74,2.74,0,0,1-1.49-2.57c0-2.28,2.16-4.17,6.89-4.17,5.64,0,6.68,2.1,6.68,4.38h-2.33c0-1.44-1.06-2.37-4.35-2.37-3,0-4.33.77-4.33,2a1.21,1.21,0,0,0,.95,1.21,23.6,23.6,0,0,0,4.22.43,17.83,17.83,0,0,1,4.61.62,2.77,2.77,0,0,1,1.81,2.68c0,1.93-1.06,4.24-7.2,4.24S131.12,128.74,131.12,127.06Z"/><path d="M155.53,126.11l-7-7.49h3.51L157,124h.06l4.89-5.35h3.15l-7,7.49v5.21h-2.58Z"/><path d="M168.53,127.06h2.34c0,1.21.69,2.49,4.53,2.49s4.64-1,4.64-2.05c0-.64-.38-1-1.14-1.25a34,34,0,0,0-4.34-.35,14.91,14.91,0,0,1-4.61-.77,2.74,2.74,0,0,1-1.49-2.57c0-2.28,2.16-4.17,6.89-4.17,5.64,0,6.68,2.1,6.68,4.38H179.7c0-1.44-1.06-2.37-4.35-2.37-3,0-4.33.77-4.33,2a1.21,1.21,0,0,0,.95,1.21,23.6,23.6,0,0,0,4.22.43,17.83,17.83,0,0,1,4.61.62,2.77,2.77,0,0,1,1.81,2.68c0,1.93-1.06,4.24-7.21,4.24S168.53,128.74,168.53,127.06Z"/><path d="M192,120.73h-5.31v-2.11h13.19v2.11H194.6v10.59H192Z"/><path d="M204.93,118.62h11.41v2.11h-8.83v3.33h7v1.74h-7v3.42h9v2.1h-11.6Z"/><path d="M221.8,118.62h4.27l4.47,9.83h0l4.42-9.83h4.15v12.7h-2.58V120.46h0l-5,10.86h-2.23l-5-10.86h0v10.86H221.8Z"/><path d="M255.53,67.93h-1.68v-.68H258v.68h-1.68v3.61h-.76Zm3.27-.68H260l1.14,2.41h0l1.14-2.41h1.23v4.29h-.75V68.05l-.09,0-1.42,3h-.24l-1.42-3-.09,0v3.49h-.76Z"/></svg>